<svg xmlns="http://www.w3.org/2000/svg" viewBox="0 0 60 60" fill="none">
  <defs>
    <linearGradient id="hexGrad" x1="0" y1="0" x2="60" y2="60">
      <stop offset="0%" stop-color="#0c8ee6"/>
      <stop offset="100%" stop-color="#003d6d"/>
    </linearGradient>
    <linearGradient id="borderGrad" x1="0" y1="0" x2="60" y2="60">
      <stop offset="0%" stop-color="#36aaf5"/>
      <stop offset="100%" stop-color="#f5c842"/>
    </linearGradient>
    <linearGradient id="dropGrad" x1="30" y1="10" x2="30" y2="46" gradientUnits="userSpaceOnUse">
      <stop offset="0%" stop-color="#0c8ee6"/>
      <stop offset="100%" stop-color="#003d6d"/>
    </linearGradient>
    <linearGradient id="flameGrad" x1="30" y1="38" x2="30" y2="26" gradientUnits="userSpaceOnUse">
      <stop offset="0%" stop-color="#f5c842"/>
      <stop offset="100%" stop-color="#ff6b00"/>
    </linearGradient>
  </defs>
  <polygon points="30,2 54,16 54,44 30,58 6,44 6,16" fill="url(#hexGrad)" opacity="0.15"/>
  <polygon points="30,2 54,16 54,44 30,58 6,44 6,16" fill="none" stroke="url(#borderGrad)" stroke-width="1.5"/>
  <path d="M30 10 C30 10 18 26 18 34 C18 41 23.4 46 30 46 C36.6 46 42 41 42 34 C42 26 30 10 30 10Z" fill="url(#dropGrad)"/>
  <path d="M30 38 C30 38 25 32 27 28 C28 26 30 30 30 30 C30 30 32 26 33 28 C35 32 30 38 30 38Z" fill="url(#flameGrad)"/>
  <ellipse cx="25" cy="28" rx="3" ry="5" fill="white" opacity="0.2" transform="rotate(-20 25 28)"/>
</svg>
